<svg width="12" height="15" viewBox="0 0 12 15" fill="none" xmlns="http://www.w3.org/2000/svg">
<path d="M11.3333 0.333008H0.666667C0.489856 0.333008 0.320286 0.403246 0.195262 0.52827C0.0702379 0.653294 0 0.822864 0 0.999675V14.333C0 14.5098 0.0702379 14.6794 0.195262 14.8044C0.320286 14.9294 0.489856 14.9997 0.666667 14.9997H11.3333C11.5101 14.9997 11.6797 14.9294 11.8047 14.8044C11.9298 14.6794 12 14.5098 12 14.333V0.999675C12 0.822864 11.9298 0.653294 11.8047 0.52827C11.6797 0.403246 11.5101 0.333008 11.3333 0.333008ZM10.6667 13.6663H1.33333V1.66634H10.6667V13.6663ZM4 5.33301C4 4.93745 4.1173 4.55077 4.33706 4.22187C4.55682 3.89297 4.86918 3.63662 5.23463 3.48525C5.60009 3.33387 6.00222 3.29427 6.39018 3.37144C6.77814 3.44861 7.13451 3.63909 7.41421 3.91879C7.69392 4.1985 7.8844 4.55487 7.96157 4.94283C8.03874 5.33079 7.99913 5.73292 7.84776 6.09838C7.69638 6.46383 7.44004 6.77618 7.11114 6.99595C6.78224 7.21571 6.39556 7.33301 6 7.33301C5.46957 7.33301 4.96086 7.1223 4.58579 6.74722C4.21071 6.37215 4 5.86344 4 5.33301ZM2.66667 11.333C2.66667 10.449 3.01786 9.60111 3.64298 8.97599C4.2681 8.35086 5.11595 7.99968 6 7.99968C6.88406 7.99968 7.7319 8.35086 8.35702 8.97599C8.98214 9.60111 9.33333 10.449 9.33333 11.333C9.33333 11.5098 9.2631 11.6794 9.13807 11.8044C9.01305 11.9294 8.84348 11.9997 8.66667 11.9997C8.48986 11.9997 8.32029 11.9294 8.19526 11.8044C8.07024 11.6794 8 11.5098 8 11.333C8 10.8026 7.78929 10.2939 7.41421 9.9188C7.03914 9.54372 6.53043 9.33301 6 9.33301C5.46957 9.33301 4.96086 9.54372 4.58579 9.9188C4.21071 10.2939 4 10.8026 4 11.333C4 11.5098 3.92976 11.6794 3.80474 11.8044C3.67971 11.9294 3.51014 11.9997 3.33333 11.9997C3.15652 11.9997 2.98695 11.9294 2.86193 11.8044C2.7369 11.6794 2.66667 11.5098 2.66667 11.333Z" fill="#A4A3A3"/>
</svg>
