<svg width="14" height="14" viewBox="0 0 14 14" fill="none" xmlns="http://www.w3.org/2000/svg">
<path d="M5.2327 4.65664L4.38108 3.81933C4.48027 3.63184 4.54163 3.41957 4.54163 3.19057C4.54163 2.46481 3.97657 1.87695 3.27865 1.87695C2.58073 1.87695 2.01477 2.4645 2.01477 3.19057C2.01477 3.91663 2.58073 4.5048 3.27865 4.5048C3.52469 4.5048 3.75227 4.42856 3.94648 4.30213L4.79691 5.13852C4.92559 4.96157 5.07066 4.7995 5.2327 4.65664Z" fill="#A4A3A3"/>
<path d="M8.83508 4.55193L9.9667 2.57082C10.0781 2.60398 10.1937 2.62784 10.3149 2.62784C11.014 2.62784 11.5791 2.03968 11.5791 1.31361C11.5791 0.587856 11.014 0 10.3149 0C9.617 0 9.05223 0.587546 9.05223 1.31361C9.05223 1.67401 9.19193 1.9997 9.41772 2.23739L8.28967 4.21292C8.48359 4.30433 8.66648 4.41837 8.83508 4.55193Z" fill="#A4A3A3"/>
<path d="M12.7376 6.21094C12.1942 6.21094 11.734 6.5701 11.5556 7.07087L9.98341 6.90942C9.98341 6.92182 9.9852 6.93359 9.9852 6.94568C9.9852 7.15888 9.96256 7.36713 9.92175 7.56824L11.4933 7.72969C11.5884 8.35691 12.1076 8.83785 12.7376 8.83785C13.4352 8.83785 13.9999 8.25031 13.9999 7.52455C13.9999 6.7991 13.4352 6.21094 12.7376 6.21094Z" fill="#A4A3A3"/>
<path d="M8.39912 11.3771L8.04763 9.7793C7.84925 9.85119 7.64282 9.90263 7.42746 9.92835L7.77954 11.5264C7.37592 11.7462 7.09741 12.1803 7.09741 12.6873C7.09741 13.413 7.66218 14.0003 8.36129 14.0003C9.05891 14.0003 9.62368 13.4127 9.62368 12.6873C9.62457 11.9748 9.07887 11.3981 8.39912 11.3771Z" fill="#A4A3A3"/>
<path d="M4.27658 7.57812L2.31954 8.26019C2.09376 7.90134 1.70503 7.66334 1.26269 7.66334C0.564769 7.66334 0 8.2512 0 8.97696C0 9.70364 0.564769 10.2915 1.26269 10.2915C1.96001 10.2915 2.52627 9.70364 2.52627 8.97696C2.52627 8.94659 2.52001 8.9187 2.51763 8.88895L4.48092 8.20503C4.39245 8.00639 4.32215 7.79722 4.27658 7.57812Z" fill="#A4A3A3"/>
<path d="M7.09834 9.19974C8.2945 9.19974 9.26418 8.19095 9.26418 6.94655C9.26418 5.70215 8.2945 4.69336 7.09834 4.69336C5.90218 4.69336 4.9325 5.70215 4.9325 6.94655C4.9325 8.19095 5.90218 9.19974 7.09834 9.19974Z" fill="#A4A3A3"/>
</svg>
