<svg width="25" height="25" viewBox="0 0 25 25" fill="none" xmlns="http://www.w3.org/2000/svg">
<path fill-rule="evenodd" clip-rule="evenodd" d="M17.1998 0.000105129C18.0461 -0.00454942 18.8846 0.145401 19.6668 0.440912C20.4488 0.736413 21.1583 1.17139 21.7546 1.71996C22.3509 2.26849 22.822 2.9197 23.1416 3.63547C23.4611 4.35122 23.623 5.11775 23.6179 5.89071C23.6129 6.66369 23.4411 7.42837 23.1123 8.14055C22.7844 8.85065 22.3065 9.49488 21.7055 10.0357L11.6323 19.29L11.6255 19.296C10.9003 19.9426 9.99532 20.4212 8.94236 20.4403C7.87381 20.4596 6.92077 20.0015 6.12347 19.2746C5.18598 18.4198 4.92849 17.3937 5.06414 16.477C5.19252 15.6095 5.66535 14.8514 6.18412 14.3588L6.19094 14.3523L13.8764 7.28197C14.3616 6.83556 15.153 6.83128 15.6441 7.27241C16.1351 7.71355 16.1399 8.43303 15.6546 8.87944L7.98429 15.9359C7.78976 16.1231 7.59119 16.4464 7.54183 16.7799C7.49928 17.0675 7.56014 17.3656 7.89379 17.6698C8.36764 18.1018 8.70056 18.1714 8.89262 18.168C9.09931 18.1642 9.42759 18.0704 9.86897 17.6789L19.9434 8.42351C20.3114 8.09308 20.6053 7.69803 20.8071 7.26079C21.0091 6.82352 21.1149 6.35324 21.118 5.87728C21.121 5.40133 21.0214 4.92982 20.8251 4.49021C20.6289 4.05062 20.3401 3.65212 19.9764 3.31744C19.6125 2.98279 19.181 2.71862 18.7073 2.53957C18.2334 2.36054 17.7263 2.26998 17.2149 2.2728C16.7036 2.27561 16.1978 2.37174 15.7264 2.55598C15.255 2.74022 14.827 3.00912 14.4678 3.34773L14.4573 3.35765L4.31855 12.6848L4.3121 12.6906C3.74487 13.1975 3.29203 13.8039 2.98068 14.4749C2.6693 15.1458 2.50583 15.8676 2.50015 16.598C2.49448 17.3284 2.64672 18.0524 2.94767 18.7276C3.22977 19.3605 3.90735 20.2114 4.50804 20.764C5.12527 21.3318 6.18492 22.0657 6.85393 22.3181C7.58382 22.5934 8.36536 22.7323 9.15323 22.7272C9.94112 22.722 10.7204 22.5728 11.4458 22.2879C12.1713 22.003 12.8289 21.5878 13.38 21.0658L13.3863 21.0599L22.8609 12.3435C23.3461 11.8972 24.1375 11.8929 24.6286 12.334C25.1196 12.7751 25.1244 13.4947 24.6391 13.941L15.177 22.6459C14.3978 23.3822 13.4668 23.9699 12.4373 24.3742C11.405 24.7797 10.2948 24.9924 9.17133 24.9998C8.04791 25.0072 6.93442 24.8091 5.89575 24.4173C4.7962 24.0024 3.46422 23.0371 2.72979 22.3614C1.97883 21.6706 1.07378 20.5753 0.630666 19.581C0.206415 18.6292 -0.00777206 17.6099 0.000215442 16.582C0.00820294 15.5541 0.238216 14.5375 0.677266 13.5915C1.11509 12.648 1.7523 11.7929 2.55275 11.0759L12.6739 1.76474C13.2616 1.21211 13.9634 0.771163 14.739 0.468037C15.517 0.163935 16.3535 0.00476422 17.1998 0.000105129Z" fill="#F09136"/>
</svg>
